<svg width="26" height="25" viewBox="0 0 26 25" fill="none" xmlns="http://www.w3.org/2000/svg">
<path d="M14.9993 1.14028e-06C17.2872 -0.00109091 19.5063 0.782239 21.2866 2.21935C23.0668 3.65646 24.3006 5.66047 24.782 7.89715C25.2635 10.1338 24.9636 12.468 23.9324 14.5103C22.9011 16.5526 21.2008 18.1797 19.1151 19.12C18.4484 20.594 17.4341 21.8842 16.1593 22.8801C14.8845 23.8759 13.3871 24.5477 11.7957 24.8378C10.2042 25.128 8.56611 25.0277 7.02189 24.5457C5.47767 24.0637 4.0734 23.2144 2.92951 22.0705C1.78563 20.9266 0.93627 19.5223 0.454277 17.9781C-0.0277161 16.4339 -0.127957 14.7958 0.16215 13.2043C0.452257 11.6129 1.12405 10.1155 2.11993 8.84068C3.1158 7.56585 4.40603 6.5516 5.87996 5.88492C6.67279 4.13068 7.95485 2.6424 9.57237 1.59858C11.1899 0.554753 13.0742 -0.00029639 14.9993 1.14028e-06V1.14028e-06ZM9.99828 7.50149C9.01317 7.50149 8.0377 7.69552 7.12758 8.07251C6.21746 8.44949 5.3905 9.00205 4.69392 9.69862C3.99735 10.3952 3.44479 11.2222 3.06781 12.1323C2.69082 13.0424 2.49679 14.0179 2.49679 15.003C2.49679 15.9881 2.69082 16.9635 3.06781 17.8737C3.44479 18.7838 3.99735 19.6107 4.69392 20.3073C5.3905 21.0039 6.21746 21.5565 7.12758 21.9334C8.0377 22.3104 9.01317 22.5045 9.99828 22.5045C11.9878 22.5045 13.8958 21.7141 15.3026 20.3073C16.7094 18.9005 17.4998 16.9925 17.4998 15.003C17.4998 13.0135 16.7094 11.1054 15.3026 9.69862C13.8958 8.29182 11.9878 7.50149 9.99828 7.50149ZM11.2485 8.75174V10.002H13.749V12.5025H8.74803C8.59181 12.5022 8.44115 12.5604 8.32572 12.6656C8.21028 12.7709 8.13842 12.9155 8.12431 13.0711C8.1102 13.2267 8.15484 13.3819 8.24945 13.5062C8.34407 13.6305 8.48179 13.7149 8.63551 13.7427L8.74803 13.7527H11.2485C12.0775 13.7527 12.8725 14.082 13.4587 14.6682C14.0448 15.2544 14.3741 16.0494 14.3741 16.8783C14.3741 17.7073 14.0448 18.5023 13.4587 19.0885C12.8725 19.6747 12.0775 20.004 11.2485 20.004V21.2542H8.74803V20.004H6.24753V17.5035H11.2485C11.4047 17.5038 11.5554 17.4455 11.6708 17.3403C11.7863 17.2351 11.8581 17.0904 11.8722 16.9348C11.8864 16.7793 11.8417 16.624 11.7471 16.4997C11.6525 16.3754 11.5148 16.2911 11.361 16.2632L11.2485 16.2532H8.74803C7.91906 16.2532 7.12405 15.9239 6.53788 15.3378C5.95171 14.7516 5.62241 13.9566 5.62241 13.1276C5.62241 12.2986 5.95171 11.5036 6.53788 10.9175C7.12405 10.3313 7.91906 10.002 8.74803 10.002V8.75174H11.2485ZM14.9993 2.5005C13.9399 2.49926 12.8924 2.72297 11.9259 3.15683C10.9595 3.59069 10.0962 4.22481 9.39316 5.01725C10.8063 4.93146 12.2215 5.14664 13.5452 5.64855C14.869 6.15047 16.0711 6.92768 17.0721 7.9288C18.0731 8.92992 18.8502 10.1321 19.3519 11.4559C19.8537 12.7797 20.0687 14.195 19.9828 15.6081C21.1195 14.5974 21.9221 13.2651 22.2842 11.7877C22.6463 10.3104 22.5508 8.75788 22.0102 7.33611C21.4696 5.91433 20.5096 4.69048 19.2575 3.82686C18.0054 2.96325 16.5203 2.50067 14.9993 2.5005V2.5005Z" fill="black"/>
</svg>
