<svg width="27" height="27" viewBox="0 0 27 27" fill="none" xmlns="http://www.w3.org/2000/svg">
<path d="M1 6C1 4.67392 1.52678 3.40215 2.46447 2.46447C3.40215 1.52678 4.67392 1 6 1H21C22.3261 1 23.5979 1.52678 24.5355 2.46447C25.4732 3.40215 26 4.67392 26 6V21C26 22.3261 25.4732 23.5979 24.5355 24.5355C23.5979 25.4732 22.3261 26 21 26H6C4.67392 26 3.40215 25.4732 2.46447 24.5355C1.52678 23.5979 1 22.3261 1 21V6Z" stroke="black" stroke-width="2" stroke-linecap="round" stroke-linejoin="round"/>
<path d="M9.125 12.25C10.8509 12.25 12.25 10.8509 12.25 9.125C12.25 7.39911 10.8509 6 9.125 6C7.39911 6 6 7.39911 6 9.125C6 10.8509 7.39911 12.25 9.125 12.25Z" stroke="black" stroke-width="2" stroke-linecap="round" stroke-linejoin="round"/>
<path d="M16.6574 14.2771L5.99994 26.0009H21.1662C22.4482 26.0009 23.6777 25.4916 24.5842 24.5851C25.4907 23.6786 25.9999 22.4491 25.9999 21.1671V21.0009C25.9999 20.4184 25.7812 20.1946 25.3874 19.7634L20.3499 14.2696C20.1152 14.0135 19.8296 13.8091 19.5114 13.6696C19.1932 13.53 18.8495 13.4583 18.502 13.459C18.1546 13.4597 17.8111 13.5328 17.4935 13.6737C17.1759 13.8145 16.8912 14.0201 16.6574 14.2771V14.2771Z" stroke="black" stroke-width="2" stroke-linecap="round" stroke-linejoin="round"/>
</svg>
