<svg width="27" height="27" viewBox="0 0 27 27" fill="none" xmlns="http://www.w3.org/2000/svg">
<path d="M15.6444 11.356C14.5068 10.2189 12.9641 9.58008 11.3556 9.58008C9.74714 9.58008 8.20449 10.2189 7.06688 11.356L2.77674 15.6448C1.63911 16.7824 1 18.3253 1 19.9342C1 21.5431 1.63911 23.086 2.77674 24.2236C3.91437 25.3613 5.45733 26.0004 7.06618 26.0004C8.67504 26.0004 10.218 25.3613 11.3556 24.2236L13.5 22.0793" stroke="black" stroke-width="2" stroke-linecap="round" stroke-linejoin="round"/>
<path d="M11.3557 15.6444C12.4933 16.7815 14.0359 17.4203 15.6444 17.4203C17.2529 17.4203 18.7955 16.7815 19.9331 15.6444L24.2233 11.3556C25.3609 10.218 26 8.67504 26 7.06618C26 5.45733 25.3609 3.91437 24.2233 2.77674C23.0856 1.63911 21.5427 1 19.9338 1C18.325 1 16.782 1.63911 15.6444 2.77674L13.5 4.92112" stroke="black" stroke-width="2" stroke-linecap="round" stroke-linejoin="round"/>
</svg>
