<svg width="26" height="25" viewBox="0 0 26 25" fill="none" xmlns="http://www.w3.org/2000/svg">
<path d="M24.305 0L19.3479 0.983855L22.804 5.44904L25.2889 4.9445L24.305 0M15.6395 1.71544L13.1547 2.20737L16.6234 6.65994L19.0956 6.16801L15.6395 1.71544M9.45892 2.92634L6.97405 3.44349L10.4428 7.89606L12.915 7.40414L9.45892 2.92634ZM3.26568 4.18769L2.02955 4.42735C1.70463 4.49142 1.39554 4.619 1.12002 4.80278C0.844508 4.98656 0.607978 5.22292 0.423999 5.4983C0.24002 5.77368 0.112211 6.08267 0.0478995 6.40755C-0.0164116 6.73244 -0.0159591 7.06682 0.0492309 7.39152L0.541158 9.86377L6.72178 8.64026L3.26568 4.18769ZM23.2455 12.3865V22.4773H3.06386V12.3865H23.2455ZM25.7682 9.86377H0.541158V22.4773C0.541158 23.1464 0.806942 23.788 1.28004 24.2611C1.75314 24.7342 2.3948 25 3.06386 25H23.2455C24.6456 25 25.7682 23.8774 25.7682 22.4773V9.86377Z" fill="black"/>
</svg>
