<svg width="25" height="25" viewBox="0 0 25 25" fill="none" xmlns="http://www.w3.org/2000/svg">
<path d="M12.8125 10C13.3615 10 13.8904 10.2065 14.2942 10.5783C14.6981 10.9502 14.9473 11.4604 14.9925 12.0075L15 12.1875V22.8125C15 23.3617 14.7933 23.8908 14.4212 24.2946C14.049 24.6985 13.5386 24.9476 12.9912 24.9925L12.8125 25H2.1875C1.63831 25 1.10924 24.7933 0.705365 24.4212C0.301493 24.049 0.0523764 23.5386 0.00750005 22.9912L0 22.8125V12.1875C2.05057e-05 11.6385 0.206464 11.1096 0.57835 10.7058C0.950236 10.3019 1.46037 10.0527 2.0075 10.0075L2.1875 10H12.8125ZM6.875 11.8737H2.1875C2.11693 11.8739 2.04849 11.898 1.99334 11.942C1.93818 11.9861 1.89956 12.0475 1.88375 12.1162L1.875 12.1875V22.8125C1.87512 22.8829 1.899 22.9512 1.94279 23.0063C1.98658 23.0615 2.0477 23.1002 2.11625 23.1163L2.1875 23.125L6.875 23.1238V11.8737V11.8737ZM12.8125 11.8737H8.125V23.1238L12.8125 23.125C12.8829 23.1249 12.9512 23.101 13.0063 23.0572C13.0615 23.0134 13.1002 22.9523 13.1163 22.8837L13.125 22.8125V12.1875C13.1252 12.1169 13.1014 12.0483 13.0576 11.9929C13.0138 11.9375 12.9525 11.8986 12.8838 11.8825L12.8125 11.875V11.8737ZM10.7812 20C11.0188 20.0001 11.2474 20.0903 11.421 20.2525C11.5946 20.4146 11.7001 20.6366 11.7163 20.8736C11.7325 21.1106 11.6581 21.3449 11.5082 21.5291C11.3583 21.7134 11.1441 21.8339 10.9088 21.8663L10.7812 21.875H10.1562C9.91872 21.8749 9.69007 21.7847 9.51651 21.6225C9.34295 21.4604 9.23741 21.2384 9.22122 21.0014C9.20503 20.7644 9.27939 20.5301 9.42929 20.3459C9.57919 20.1616 9.79344 20.0411 10.0287 20.0087L10.1562 20H10.7812ZM4.84375 20C5.08128 20.0001 5.30993 20.0903 5.48349 20.2525C5.65705 20.4146 5.76259 20.6366 5.77878 20.8736C5.79497 21.1106 5.72061 21.3449 5.57071 21.5291C5.42081 21.7134 5.20656 21.8339 4.97125 21.8663L4.84375 21.875H4.21875C3.98122 21.8749 3.75257 21.7847 3.57901 21.6225C3.40545 21.4604 3.29991 21.2384 3.28372 21.0014C3.26753 20.7644 3.34189 20.5301 3.49179 20.3459C3.64169 20.1616 3.85594 20.0411 4.09125 20.0087L4.21875 20H4.84375ZM22.1875 2.12484e-08C22.9002 -8.75273e-05 23.5863 0.270369 24.1072 0.756712C24.6281 1.24305 24.945 1.90901 24.9938 2.62L25 2.8125V14.0625C25.0001 14.7752 24.7296 15.4613 24.2433 15.9822C23.7569 16.5031 23.091 16.82 22.38 16.8687L22.1875 16.875H18.755V19.375H20.3125C20.55 19.3751 20.7787 19.4653 20.9522 19.6275C21.1258 19.7896 21.2313 20.0116 21.2475 20.2486C21.2637 20.4856 21.1894 20.7199 21.0395 20.9041C20.8896 21.0884 20.6753 21.2089 20.44 21.2413L20.3125 21.25H16.25V19.375H16.88V16.875H16.25V15H22.1875C22.414 15 22.6329 14.9179 22.8037 14.769C22.9744 14.6201 23.0854 14.4144 23.1163 14.19L23.125 14.0625V2.8125C23.125 2.56386 23.0262 2.3254 22.8504 2.14959C22.6746 1.97377 22.4361 1.875 22.1875 1.875H5.3125C5.08595 1.87501 4.86707 1.95705 4.69634 2.10596C4.5256 2.25486 4.41456 2.46056 4.38375 2.685L4.375 2.8125V8.75H2.5V2.8125C2.49991 2.09984 2.77037 1.41372 3.25671 0.892808C3.74305 0.371893 4.40901 0.0550276 5.12 0.00625016L5.3125 2.12484e-08H22.1875Z" fill="black"/>
</svg>
