<svg width="34" height="25" viewBox="0 0 34 25" fill="none" xmlns="http://www.w3.org/2000/svg">
<path d="M18.9842 6.25C24.1839 6.25 27.1328 9.52917 27.561 13.4875H27.6918C31.0373 13.4875 33.75 16.0646 33.75 19.2438C33.75 22.4229 31.0373 25 27.6918 25H10.2766C6.93104 25 4.21834 22.4229 4.21834 19.2438C4.21834 16.0646 6.93104 13.4875 10.2766 13.4875H10.4073C10.8398 9.50208 13.7845 6.25 18.9842 6.25ZM18.9842 8.33333C15.5037 8.33333 12.4724 10.9792 12.4724 14.6354C12.4724 15.2146 11.9367 15.6687 11.3228 15.6687H10.1626C8.0448 15.6687 6.32775 17.2917 6.32775 19.2937C6.32775 21.2917 8.0448 22.9167 10.1626 22.9167H27.8057C29.9235 22.9167 31.6406 21.2937 31.6406 19.2917C31.6406 17.2917 29.9235 15.6687 27.8057 15.6687H26.6455C26.0338 15.6687 25.4959 15.2146 25.4959 14.6354C25.4959 10.9333 22.4647 8.33333 18.9842 8.33333ZM13.4828 7.26158e-08C16.5541 7.26158e-08 19.2331 1.725 20.5557 4.26042C19.6571 4.15036 18.7491 4.13499 17.8472 4.21458C17.3262 3.55223 16.659 3.01599 15.8965 2.64667C15.134 2.27735 14.2962 2.08469 13.447 2.08333C12.1206 2.08955 10.839 2.5579 9.82797 3.40589C8.81695 4.25387 8.1414 5.42706 7.92035 6.71875L7.8423 7.15625C7.75773 7.64042 7.50262 8.07949 7.12204 8.3959C6.74146 8.71231 6.2599 8.88569 5.76243 8.88542H5.2182C3.50115 8.88542 2.10894 10.2771 2.10894 11.9937C2.10894 13.1812 2.7734 14.2125 3.75006 14.7354C3.29864 15.3021 2.92739 15.9354 2.65316 16.6146C1.64826 16.0099 0.864822 15.1044 0.416722 14.0298C-0.0313781 12.9552 -0.120778 11.7675 0.161517 10.6392C0.443813 9.511 1.08309 8.50109 1.98642 7.75631C2.88975 7.01153 4.01004 6.57071 5.18445 6.49792L5.65063 6.4875C5.9759 4.66943 6.93925 3.02265 8.37154 1.83627C9.80384 0.649886 11.6135 -0.000250867 13.4828 7.26158e-08Z" fill="black"/>
</svg>
