<svg width="30" height="27" viewBox="0 0 30 27" fill="none" xmlns="http://www.w3.org/2000/svg">
<path d="M3.92249 19.75C5.01939 21.6509 6.59762 23.2294 8.49836 24.3265C10.3991 25.4237 12.5553 26.0009 14.75 26C16.9447 26.0009 19.1009 25.4237 21.0016 24.3265C22.9024 23.2294 24.4806 21.6509 25.5775 19.75M3.92249 7.25C5.01939 5.3491 6.59762 3.77064 8.49836 2.67347C10.3991 1.57629 12.5553 0.999111 14.75 1C16.9447 0.999111 19.1009 1.57629 21.0016 2.67347C22.9024 3.77064 24.4806 5.3491 25.5775 7.25" stroke="black" stroke-width="1.5" stroke-linecap="round" stroke-linejoin="round"/>
<path d="M16 25.9375C16 25.9375 17.76 23.6212 18.8687 19.75M16 1.0625C16 1.0625 17.76 3.3775 18.8687 7.25M13.5 25.9375C13.5 25.9375 11.74 23.6225 10.6312 19.75M13.5 1.0625C13.5 1.0625 11.74 3.3775 10.6312 7.25M11 11L12.875 17.25L14.75 11L16.625 17.25L18.5 11M1 11L2.875 17.25L4.75 11L6.625 17.25L8.5 11M21 11L22.875 17.25L24.75 11L26.625 17.25L28.5 11" stroke="black" stroke-width="1.5" stroke-linecap="round" stroke-linejoin="round"/>
</svg>
