<svg width="50" height="50" viewBox="0 0 50 50" fill="none" xmlns="http://www.w3.org/2000/svg">
<path d="M4.16663 12.5C4.16663 10.2898 5.0446 8.17021 6.6074 6.6074C8.17021 5.0446 10.2898 4.16663 12.5 4.16663H37.5C39.7101 4.16663 41.8297 5.0446 43.3925 6.6074C44.9553 8.17021 45.8333 10.2898 45.8333 12.5V37.5C45.8333 39.7101 44.9553 41.8297 43.3925 43.3925C41.8297 44.9553 39.7101 45.8333 37.5 45.8333H12.5C10.2898 45.8333 8.17021 44.9553 6.6074 43.3925C5.0446 41.8297 4.16663 39.7101 4.16663 37.5V12.5Z" stroke="grey" stroke-width="2" stroke-linecap="round" stroke-linejoin="round"/>
<path d="M17.7083 22.9167C20.5848 22.9167 22.9167 20.5848 22.9167 17.7083C22.9167 14.8319 20.5848 12.5 17.7083 12.5C14.8319 12.5 12.5 14.8319 12.5 17.7083C12.5 20.5848 14.8319 22.9167 17.7083 22.9167Z" stroke="grey" stroke-width="2" stroke-linecap="round" stroke-linejoin="round"/>
<path d="M30.2625 26.2937L12.5 45.8333H37.7771C39.9137 45.8333 41.9629 44.9845 43.4737 43.4737C44.9846 41.9628 45.8333 39.9137 45.8333 37.777V37.5C45.8333 36.5291 45.4687 36.1562 44.8125 35.4375L36.4167 26.2812C36.0254 25.8544 35.5494 25.5138 35.0191 25.2812C34.4888 25.0485 33.9159 24.929 33.3368 24.9302C32.7578 24.9314 32.1853 25.0532 31.656 25.288C31.1266 25.5228 30.6521 25.8653 30.2625 26.2937V26.2937Z" stroke="grey" stroke-width="2" stroke-linecap="round" stroke-linejoin="round"/>
</svg>
