<svg width="" height="" viewBox="0 0 616 270" fill="none" xmlns="http://www.w3.org/2000/svg">
<path d="M7.8 106.6C7.8 129 20.8 143.2 45.6 148.6L68.8 153.8C80.8 156.4 85.8 162.2 85.8 172C85.8 184.2 75 191.6 58 191.6C41.6 191.6 31.6 184.2 31.4 171.8H5.8C6.4 198 26.8 214.6 58 214.6C90.2 214.6 111.4 197 111.4 169.8C111.4 148 99.2 135.2 74.2 129.8L51.2 124.8C39 122 33.4 116.2 33.4 105.8C33.4 93.6 43.6 86 59.4 86C73.8 86 82.8 93.4 83.4 106H109C108.2 79.6 89.4 63.2 59.8 63.2C29 63.2 7.8 81 7.8 106.6Z" fill="black"/>
<path d="M161.4 212L161.6 125H142.6V110H161.6L161.8 74.8H179.2L179 110H206.4V125H179L178.6 197H206V212H161.4ZM236.884 122.8C246.884 113.067 259.418 108.2 274.484 108.2C289.551 108.2 302.018 113.067 311.884 122.8C321.884 132.4 326.884 145.133 326.884 161C326.884 176.867 321.884 189.667 311.884 199.4C302.018 209.133 289.551 214 274.484 214C259.418 214 246.884 209.133 236.884 199.4C227.018 189.667 222.084 176.867 222.084 161C222.084 145.133 227.018 132.4 236.884 122.8ZM299.484 133.4C292.951 126.6 284.618 123.2 274.484 123.2C264.351 123.2 255.951 126.6 249.284 133.4C242.751 140.2 239.484 149.4 239.484 161C239.484 172.6 242.751 181.867 249.284 188.8C255.951 195.6 264.351 199 274.484 199C284.618 199 292.951 195.6 299.484 188.8C306.151 181.867 309.484 172.6 309.484 161C309.484 149.4 306.151 140.2 299.484 133.4ZM363.056 122.8C373.056 113.067 385.59 108.2 400.656 108.2C415.723 108.2 428.19 113.067 438.056 122.8C448.056 132.4 453.056 145.133 453.056 161C453.056 176.867 448.056 189.667 438.056 199.4C428.19 209.133 415.723 214 400.656 214C385.59 214 373.056 209.133 363.056 199.4C353.19 189.667 348.256 176.867 348.256 161C348.256 145.133 353.19 132.4 363.056 122.8ZM425.656 133.4C419.123 126.6 410.79 123.2 400.656 123.2C390.523 123.2 382.123 126.6 375.456 133.4C368.923 140.2 365.656 149.4 365.656 161C365.656 172.6 368.923 181.867 375.456 188.8C382.123 195.6 390.523 199 400.656 199C410.79 199 419.123 195.6 425.656 188.8C432.323 181.867 435.656 172.6 435.656 161C435.656 149.4 432.323 140.2 425.656 133.4ZM481.228 212V56.6H498.428V212H481.228ZM564.777 108.4C575.71 108.267 584.377 111.067 590.777 116.8C597.177 122.4 600.977 129.8 602.177 139L584.977 140C583.643 128.667 576.71 123.067 564.177 123.2C557.91 123.067 553.11 124.333 549.777 127C546.443 129.667 544.777 133.333 544.777 138C544.777 139.2 544.843 140.267 544.977 141.2C545.243 142.133 545.643 143 546.177 143.8C546.71 144.6 547.177 145.333 547.577 146C548.11 146.533 548.91 147.067 549.977 147.6C551.177 148.133 552.11 148.6 552.777 149C553.577 149.267 554.71 149.6 556.177 150C557.777 150.4 559.043 150.733 559.977 151C560.91 151.133 562.377 151.467 564.377 152C566.377 152.4 567.91 152.733 568.977 153C581.11 155.933 590.043 159.467 595.777 163.6C601.51 167.733 604.377 174 604.377 182.4C604.377 192.4 600.91 200.2 593.977 205.8C587.043 211.267 577.643 214 565.777 214C554.31 214 545.043 211.333 537.977 206C530.91 200.533 526.71 192.867 525.377 183L542.577 181.8C544.177 193.267 552.043 199 566.177 199C572.577 199 577.643 197.733 581.377 195.2C585.243 192.533 587.177 188.733 587.177 183.8C587.177 178.867 585.443 175.4 581.977 173.4C578.643 171.267 571.977 169 561.977 166.6C557.043 165.4 553.243 164.467 550.577 163.8C547.91 163 544.843 161.867 541.377 160.4C537.91 158.933 535.31 157.333 533.577 155.6C531.977 153.733 530.51 151.333 529.177 148.4C527.977 145.467 527.377 142.067 527.377 138.2C527.377 129.133 530.643 121.867 537.177 116.4C543.843 110.933 553.043 108.267 564.777 108.4Z" fill="black"/>
<path d="M401 165.2C402.114 165.2 403.182 164.758 403.97 163.97C404.758 163.182 405.2 162.114 405.2 161C405.2 159.886 404.758 158.818 403.97 158.03C403.182 157.243 402.114 156.8 401 156.8C399.886 156.8 398.818 157.243 398.03 158.03C397.243 158.818 396.8 159.886 396.8 161C396.8 162.114 397.243 163.182 398.03 163.97C398.818 164.758 399.886 165.2 401 165.2V165.2Z" fill="black" stroke="black" stroke-width="14.5" stroke-linecap="round" stroke-linejoin="round"/>
<path d="M401 203C424.197 203 443 184.197 443 161C443 137.803 424.197 119 401 119C377.803 119 359 137.803 359 161C359 184.197 377.803 203 401 203Z" stroke="black" stroke-width="14.5" stroke-linecap="round" stroke-linejoin="round"/>
<path d="M275 165.2C276.114 165.2 277.182 164.758 277.97 163.97C278.758 163.182 279.2 162.114 279.2 161C279.2 159.886 278.758 158.818 277.97 158.03C277.182 157.243 276.114 156.8 275 156.8C273.886 156.8 272.818 157.243 272.03 158.03C271.243 158.818 270.8 159.886 270.8 161C270.8 162.114 271.243 163.182 272.03 163.97C272.818 164.758 273.886 165.2 275 165.2V165.2Z" fill="black" stroke="black" stroke-width="14.5" stroke-linecap="round" stroke-linejoin="round"/>
<path d="M275 203C298.197 203 317 184.197 317 161C317 137.803 298.197 119 275 119C251.803 119 233 137.803 233 161C233 184.197 251.803 203 275 203Z" stroke="black" stroke-width="14.5" stroke-linecap="round" stroke-linejoin="round"/>
</svg>
