<svg width="" height="" viewBox="0 0 580 270" fill="none" xmlns="http://www.w3.org/2000/svg">
<path d="M177.2 212V133.6H196.4V113.2H177.2V82.4H152.8V113.2H133.8V133.6H152.8V212H177.2ZM204.792 162.4C204.792 193.2 226.992 214.4 257.592 214.4C288.192 214.4 310.392 193.2 310.392 162.4C310.392 131.6 288.192 110.4 257.592 110.4C226.992 110.4 204.792 131.6 204.792 162.4ZM229.192 162.4C229.192 144.4 240.792 132.2 257.592 132.2C274.392 132.2 285.992 144.4 285.992 162.4C285.992 180.4 274.392 192.6 257.592 192.6C240.792 192.6 229.192 180.4 229.192 162.4ZM323.933 162.4C323.933 193.2 346.133 214.4 376.733 214.4C407.333 214.4 429.533 193.2 429.533 162.4C429.533 131.6 407.333 110.4 376.733 110.4C346.133 110.4 323.933 131.6 323.933 162.4ZM348.333 162.4C348.333 144.4 359.933 132.2 376.733 132.2C393.533 132.2 405.133 144.4 405.133 162.4C405.133 180.4 393.533 192.6 376.733 192.6C359.933 192.6 348.333 180.4 348.333 162.4ZM473.473 212V63.2H449.273V212H473.473ZM491.469 182C491.469 201.4 507.069 214.6 531.669 214.6C556.069 214.6 573.069 202.2 573.069 182.2C573.069 167 564.669 159.4 548.069 155.6L530.269 151.4C521.869 149.4 517.469 145.8 517.469 140.2C517.469 132.8 523.069 128.4 532.669 128.4C542.069 128.4 547.669 133.8 547.869 142.2H571.069C570.869 123 555.869 110.2 533.669 110.2C510.869 110.2 494.469 121.8 494.469 141.2C494.469 157 503.069 165.4 520.869 169.4L538.669 173.6C547.469 175.6 550.069 179.2 550.069 184.2C550.069 191.4 543.869 196 532.469 196C521.269 196 514.869 190.6 514.669 182H491.469Z" fill="black"/>
<path d="M7.8 106.6C7.8 129 20.8 143.2 45.6 148.6L68.8 153.8C80.8 156.4 85.8 162.2 85.8 172C85.8 184.2 75 191.6 58 191.6C41.6 191.6 31.6 184.2 31.4 171.8H5.8C6.4 198 26.8 214.6 58 214.6C90.2 214.6 111.4 197 111.4 169.8C111.4 148 99.2 135.2 74.2 129.8L51.2 124.8C39 122 33.4 116.2 33.4 105.8C33.4 93.6 43.6 86 59.4 86C73.8 86 82.8 93.4 83.4 106H109C108.2 79.6 89.4 63.2 59.8 63.2C29 63.2 7.8 81 7.8 106.6Z" fill="black"/>
</svg>
