<svg width="112" height="18" viewBox="0 0 112 18" fill="none" xmlns="http://www.w3.org/2000/svg">
<path d="M13.375 12H14.625V8.4H13.375V12ZM14 7.2C14.1771 7.2 14.3256 7.1424 14.4456 7.0272C14.5652 6.9124 14.625 6.77 14.625 6.6C14.625 6.43 14.5652 6.2874 14.4456 6.1722C14.3256 6.0574 14.1771 6 14 6C13.8229 6 13.6746 6.0574 13.555 6.1722C13.435 6.2874 13.375 6.43 13.375 6.6C13.375 6.77 13.435 6.9124 13.555 7.0272C13.6746 7.1424 13.8229 7.2 14 7.2ZM14 15C12.5521 14.65 11.3569 13.8524 10.4144 12.6072C9.47146 11.3624 9 9.98 9 8.46V4.8L14 3L19 4.8V8.46C19 9.98 18.5288 11.3624 17.5863 12.6072C16.6433 13.8524 15.4479 14.65 14 15ZM14 13.74C15.0833 13.41 15.9792 12.75 16.6875 11.76C17.3958 10.77 17.75 9.67 17.75 8.46V5.625L14 4.275L10.25 5.625V8.46C10.25 9.67 10.6042 10.77 11.3125 11.76C12.0208 12.75 12.9167 13.41 14 13.74V13.74Z" fill="#2B2B2B"/>
<path d="M27.8807 13V5.72727H30.3381C30.9086 5.72727 31.375 5.83026 31.7372 6.03622C32.1018 6.23982 32.3717 6.51562 32.5469 6.86364C32.7221 7.21165 32.8097 7.59991 32.8097 8.02841C32.8097 8.45691 32.7221 8.84635 32.5469 9.19673C32.3741 9.54711 32.1065 9.82647 31.7443 10.0348C31.3821 10.2408 30.9181 10.3438 30.3523 10.3438H28.5909V9.5625H30.3239C30.7145 9.5625 31.0282 9.49503 31.2649 9.36009C31.5017 9.22514 31.6733 9.04285 31.7798 8.81321C31.8887 8.5812 31.9432 8.3196 31.9432 8.02841C31.9432 7.73722 31.8887 7.4768 31.7798 7.24716C31.6733 7.01752 31.5005 6.83759 31.2614 6.70739C31.0223 6.57481 30.705 6.50852 30.3097 6.50852H28.7614V13H27.8807ZM34.1147 13V7.54545H34.9244V8.36932H34.9812C35.0806 8.09943 35.2605 7.88045 35.521 7.71236C35.7814 7.54427 36.0749 7.46023 36.4016 7.46023C36.4632 7.46023 36.5401 7.46141 36.6325 7.46378C36.7248 7.46615 36.7946 7.4697 36.842 7.47443V8.3267C36.8136 8.3196 36.7485 8.30895 36.6467 8.29474C36.5472 8.27817 36.4419 8.26989 36.3306 8.26989C36.0655 8.26989 35.8287 8.32552 35.6204 8.43679C35.4144 8.54569 35.2511 8.69721 35.1303 8.89134C35.012 9.0831 34.9528 9.30208 34.9528 9.5483V13H34.1147ZM37.8354 13V7.54545H38.6735V13H37.8354ZM38.2615 6.63636C38.0982 6.63636 37.9573 6.58073 37.839 6.46946C37.723 6.35819 37.665 6.22443 37.665 6.06818C37.665 5.91193 37.723 5.77817 37.839 5.6669C37.9573 5.55563 38.0982 5.5 38.2615 5.5C38.4249 5.5 38.5646 5.55563 38.6806 5.6669C38.7989 5.77817 38.8581 5.91193 38.8581 6.06818C38.8581 6.22443 38.7989 6.35819 38.6806 6.46946C38.5646 6.58073 38.4249 6.63636 38.2615 6.63636ZM44.6687 7.54545L42.6516 13H41.7994L39.7823 7.54545H40.6914L42.1971 11.892H42.2539L43.7596 7.54545H44.6687ZM47.214 13.1278C46.8683 13.1278 46.5546 13.0627 46.2729 12.9325C45.9912 12.8 45.7675 12.6094 45.6017 12.3608C45.436 12.1098 45.3532 11.8068 45.3532 11.4517C45.3532 11.1392 45.4147 10.8859 45.5378 10.6918C45.6609 10.4953 45.8255 10.3414 46.0314 10.2301C46.2374 10.1188 46.4647 10.036 46.7132 9.98153C46.9642 9.92472 47.2163 9.87973 47.4696 9.84659C47.8011 9.80398 48.0698 9.77202 48.2757 9.75071C48.4841 9.72704 48.6356 9.68797 48.7303 9.63352C48.8274 9.57907 48.8759 9.48437 48.8759 9.34943V9.32102C48.8759 8.97064 48.78 8.69839 48.5882 8.50426C48.3989 8.31013 48.1112 8.21307 47.7253 8.21307C47.3252 8.21307 47.0115 8.30066 46.7843 8.47585C46.557 8.65104 46.3972 8.83807 46.3049 9.03693L45.5094 8.75284C45.6515 8.4214 45.8408 8.16335 46.0776 7.97869C46.3167 7.79167 46.5771 7.66146 46.8588 7.58807C47.1429 7.51231 47.4223 7.47443 47.6969 7.47443C47.8721 7.47443 48.0733 7.49574 48.3006 7.53835C48.5302 7.5786 48.7516 7.66264 48.9647 7.79048C49.1801 7.91832 49.3588 8.11127 49.5009 8.36932C49.6429 8.62737 49.714 8.97301 49.714 9.40625V13H48.8759V12.2614H48.8333C48.7765 12.3797 48.6818 12.5064 48.5492 12.6413C48.4166 12.7763 48.2402 12.8911 48.0201 12.9858C47.7999 13.0805 47.5312 13.1278 47.214 13.1278ZM47.3418 12.375C47.6732 12.375 47.9526 12.3099 48.1799 12.1797C48.4095 12.0495 48.5823 11.8814 48.6983 11.6754C48.8167 11.4695 48.8759 11.2528 48.8759 11.0256V10.2585C48.8404 10.3011 48.7623 10.3402 48.6415 10.3757C48.5231 10.4089 48.3858 10.4384 48.2296 10.4645C48.0757 10.4882 47.9254 10.5095 47.7786 10.5284C47.6342 10.545 47.517 10.5592 47.427 10.571C47.2092 10.5994 47.0056 10.6456 46.8162 10.7095C46.6292 10.7711 46.4777 10.8646 46.3617 10.9901C46.248 11.1132 46.1912 11.2812 46.1912 11.4943C46.1912 11.7855 46.2989 12.0057 46.5144 12.1548C46.7322 12.3016 47.008 12.375 47.3418 12.375ZM53.4595 13.1136C52.9482 13.1136 52.5078 12.9929 52.1385 12.7514C51.7692 12.5099 51.4851 12.1773 51.2862 11.7536C51.0874 11.3298 50.9879 10.8456 50.9879 10.3011C50.9879 9.74716 51.0897 9.25829 51.2933 8.83452C51.4993 8.40838 51.7857 8.07576 52.1527 7.83665C52.522 7.59517 52.9529 7.47443 53.4453 7.47443C53.8288 7.47443 54.1745 7.54545 54.4822 7.6875C54.79 7.82955 55.0421 8.02841 55.2386 8.28409C55.4351 8.53977 55.5571 8.83807 55.6044 9.17898H54.7663C54.7024 8.9304 54.5604 8.71023 54.3402 8.51847C54.1224 8.32434 53.8288 8.22727 53.4595 8.22727C53.1328 8.22727 52.8464 8.3125 52.6001 8.48295C52.3563 8.65104 52.1657 8.88897 52.0284 9.19673C51.8935 9.50213 51.826 9.8608 51.826 10.2727C51.826 10.6941 51.8923 11.0611 52.0249 11.3736C52.1598 11.6861 52.3492 11.9287 52.593 12.1016C52.8393 12.2744 53.1281 12.3608 53.4595 12.3608C53.6773 12.3608 53.875 12.3229 54.0526 12.2472C54.2301 12.1714 54.3804 12.0625 54.5036 11.9205C54.6267 11.7784 54.7143 11.608 54.7663 11.4091H55.6044C55.5571 11.7311 55.4399 12.0211 55.2528 12.2791C55.0682 12.5348 54.8232 12.7384 54.5178 12.8899C54.2147 13.0391 53.862 13.1136 53.4595 13.1136ZM57.3693 15.0455C57.2273 15.0455 57.1006 15.0336 56.9893 15.0099C56.8781 14.9886 56.8011 14.9673 56.7585 14.946L56.9716 14.2074C57.1752 14.2595 57.3551 14.2784 57.5114 14.2642C57.6676 14.25 57.8061 14.1802 57.9268 14.0547C58.05 13.9316 58.1624 13.7315 58.2642 13.4545L58.4205 13.0284L56.4034 7.54545H57.3125L58.8182 11.892H58.875L60.3807 7.54545H61.2898L58.9744 13.7955C58.8703 14.0772 58.7412 14.3104 58.5874 14.495C58.4335 14.6821 58.2547 14.8205 58.0511 14.9105C57.8499 15.0005 57.6226 15.0455 57.3693 15.0455ZM65.6204 13H64.6971L67.3675 5.72727H68.2766L70.9471 13H70.0238L67.8505 6.87784H67.7937L65.6204 13ZM65.9613 10.1591H69.6829V10.9403H65.9613V10.1591ZM75.7429 7.54545L73.7259 13H72.8736L70.8565 7.54545H71.7656L73.2713 11.892H73.3281L74.8338 7.54545H75.7429ZM76.8491 13V7.54545H77.6871V13H76.8491ZM77.2752 6.63636C77.1119 6.63636 76.971 6.58073 76.8526 6.46946C76.7366 6.35819 76.6786 6.22443 76.6786 6.06818C76.6786 5.91193 76.7366 5.77817 76.8526 5.6669C76.971 5.55563 77.1119 5.5 77.2752 5.5C77.4386 5.5 77.5782 5.55563 77.6942 5.6669C77.8126 5.77817 77.8718 5.91193 77.8718 6.06818C77.8718 6.22443 77.8126 6.35819 77.6942 6.46946C77.5782 6.58073 77.4386 6.63636 77.2752 6.63636ZM80.0602 5.72727V13H79.2221V5.72727H80.0602ZM83.2003 13.1278C82.8546 13.1278 82.541 13.0627 82.2592 12.9325C81.9775 12.8 81.7538 12.6094 81.5881 12.3608C81.4223 12.1098 81.3395 11.8068 81.3395 11.4517C81.3395 11.1392 81.401 10.8859 81.5241 10.6918C81.6473 10.4953 81.8118 10.3414 82.0178 10.2301C82.2237 10.1188 82.451 10.036 82.6996 9.98153C82.9505 9.92472 83.2027 9.87973 83.456 9.84659C83.7874 9.80398 84.0561 9.77202 84.2621 9.75071C84.4704 9.72704 84.6219 9.68797 84.7166 9.63352C84.8137 9.57907 84.8622 9.48437 84.8622 9.34943V9.32102C84.8622 8.97064 84.7663 8.69839 84.5746 8.50426C84.3852 8.31013 84.0975 8.21307 83.7116 8.21307C83.3116 8.21307 82.9979 8.30066 82.7706 8.47585C82.5433 8.65104 82.3835 8.83807 82.2912 9.03693L81.4957 8.75284C81.6378 8.4214 81.8272 8.16335 82.0639 7.97869C82.303 7.79167 82.5634 7.66146 82.8452 7.58807C83.1293 7.51231 83.4086 7.47443 83.6832 7.47443C83.8584 7.47443 84.0597 7.49574 84.2869 7.53835C84.5166 7.5786 84.7379 7.66264 84.951 7.79048C85.1664 7.91832 85.3452 8.11127 85.4872 8.36932C85.6293 8.62737 85.7003 8.97301 85.7003 9.40625V13H84.8622V12.2614H84.8196C84.7628 12.3797 84.6681 12.5064 84.5355 12.6413C84.4029 12.7763 84.2266 12.8911 84.0064 12.9858C83.7862 13.0805 83.5175 13.1278 83.2003 13.1278ZM83.3281 12.375C83.6596 12.375 83.9389 12.3099 84.1662 12.1797C84.3958 12.0495 84.5687 11.8814 84.6847 11.6754C84.803 11.4695 84.8622 11.2528 84.8622 11.0256V10.2585C84.8267 10.3011 84.7486 10.3402 84.6278 10.3757C84.5095 10.4089 84.3722 10.4384 84.2159 10.4645C84.062 10.4882 83.9117 10.5095 83.7649 10.5284C83.6205 10.545 83.5033 10.5592 83.4134 10.571C83.1955 10.5994 82.992 10.6456 82.8026 10.7095C82.6155 10.7711 82.464 10.8646 82.348 10.9901C82.2344 11.1132 82.1776 11.2812 82.1776 11.4943C82.1776 11.7855 82.2853 12.0057 82.5007 12.1548C82.7185 12.3016 82.9943 12.375 83.3281 12.375ZM87.3436 13V5.72727H88.1816V8.41193H88.2527C88.3142 8.31723 88.3994 8.1965 88.5083 8.04972C88.6196 7.90057 88.7782 7.76799 88.9842 7.65199C89.1925 7.53362 89.4743 7.47443 89.8294 7.47443C90.2886 7.47443 90.6935 7.58925 91.0439 7.81889C91.3942 8.04853 91.6677 8.37405 91.8642 8.79545C92.0607 9.21686 92.1589 9.71402 92.1589 10.2869C92.1589 10.8646 92.0607 11.3653 91.8642 11.7891C91.6677 12.2105 91.3954 12.5372 91.0474 12.7692C90.6994 12.9988 90.2981 13.1136 89.8436 13.1136C89.4932 13.1136 89.2127 13.0556 89.002 12.9396C88.7913 12.8213 88.6291 12.6875 88.5154 12.5384C88.4018 12.3868 88.3142 12.2614 88.2527 12.1619H88.1532V13H87.3436ZM88.1674 10.2727C88.1674 10.6847 88.2278 11.0481 88.3485 11.3629C88.4693 11.6754 88.6457 11.9205 88.8777 12.098C89.1097 12.2732 89.3938 12.3608 89.7299 12.3608C90.0803 12.3608 90.3727 12.2685 90.6071 12.0838C90.8438 11.8968 91.0214 11.6458 91.1397 11.331C91.2605 11.0137 91.3208 10.661 91.3208 10.2727C91.3208 9.8892 91.2617 9.54356 91.1433 9.2358C91.0273 8.92566 90.8509 8.68063 90.6142 8.50071C90.3798 8.31842 90.085 8.22727 89.7299 8.22727C89.389 8.22727 89.1026 8.31368 88.8706 8.48651C88.6386 8.65696 88.4634 8.89607 88.345 9.20384C88.2266 9.50923 88.1674 9.86553 88.1674 10.2727ZM94.2789 5.72727V13H93.4409V5.72727H94.2789ZM98.1009 13.1136C97.5753 13.1136 97.1219 12.9976 96.7408 12.7656C96.362 12.5312 96.0696 12.2045 95.8636 11.7855C95.66 11.3641 95.5582 10.8741 95.5582 10.3153C95.5582 9.75663 95.66 9.2642 95.8636 8.83807C96.0696 8.40956 96.3561 8.07576 96.723 7.83665C97.0923 7.59517 97.5232 7.47443 98.0156 7.47443C98.2997 7.47443 98.5803 7.52178 98.8572 7.61648C99.1342 7.71117 99.3864 7.86506 99.6136 8.07812C99.8409 8.28883 100.022 8.56818 100.157 8.91619C100.292 9.2642 100.359 9.69271 100.359 10.2017V10.5568H96.1548V9.83239H99.5071C99.5071 9.52462 99.4455 9.25 99.3224 9.00852C99.2017 8.76705 99.0289 8.57647 98.804 8.43679C98.5814 8.29711 98.3187 8.22727 98.0156 8.22727C97.6818 8.22727 97.393 8.31013 97.1491 8.47585C96.9077 8.6392 96.7218 8.85227 96.5916 9.11506C96.4614 9.37784 96.3963 9.65956 96.3963 9.96023V10.4432C96.3963 10.8551 96.4673 11.2043 96.6094 11.4908C96.7538 11.7749 96.9538 11.9915 97.2095 12.1406C97.4652 12.2874 97.7623 12.3608 98.1009 12.3608C98.321 12.3608 98.5199 12.33 98.6974 12.2685C98.8774 12.2045 99.0324 12.1098 99.1626 11.9844C99.2929 11.8565 99.3935 11.6979 99.4645 11.5085L100.274 11.7358C100.189 12.0104 100.046 12.2519 99.8445 12.4602C99.6432 12.6662 99.3946 12.8272 99.0987 12.9432C98.8028 13.0568 98.4702 13.1136 98.1009 13.1136Z" fill="#2B2B2B"/>
<rect x="0.25" y="0.25" width="111.5" height="17.5" rx="8.75" stroke="#2B2B2B" stroke-width="0.5"/>
</svg>
